HIERARCHY
ROOT Hips
{
	OFFSET 0.0000 0.0000 0.0000
	CHANNELS 6 Xposition Yposition Zposition Zrotation Xrotation Yrotation
	JOINT Spine1
	{
		OFFSET -0.0137 5.0038 -0.0537
		CHANNELS 3 Zrotation Xrotation Yrotation
		JOINT Spine2
		{
			OFFSET -0.0000 7.1253 -0.0298
			CHANNELS 3 Zrotation Xrotation Yrotation
			JOINT Chest
			{
				OFFSET -0.0000 7.5501 -0.8160
				CHANNELS 3 Zrotation Xrotation Yrotation
				JOINT Neck1
				{
					OFFSET -0.1817 26.3113 -0.5533
					CHANNELS 3 Zrotation Xrotation Yrotation
					JOINT Neck2
					{
						OFFSET -0.0000 7.7094 2.3026
						CHANNELS 3 Zrotation Xrotation Yrotation
						JOINT Head
						{
							OFFSET -0.0000 6.1289 1.9537
							CHANNELS 3 Zrotation Xrotation Yrotation
							JOINT Jaw
							{
								OFFSET 0.0026 0.4756 3.0949
								CHANNELS 3 Zrotation Xrotation Yrotation
								End Site
								{
									OFFSET 0.0 1.0 0.0
								}
							}
							JOINT LeftEye
							{
								OFFSET 3.2064 5.3802 7.5869
								CHANNELS 3 Zrotation Xrotation Yrotation
								End Site
								{
									OFFSET 0.0 1.0 0.0
								}
							}
							JOINT RightEye
							{
								OFFSET -3.2224 5.3619 7.5582
								CHANNELS 3 Zrotation Xrotation Yrotation
								End Site
								{
									OFFSET 0.0 1.0 0.0
								}
							}
						}
					}
				}
				JOINT LeftShoulder
				{
					OFFSET 1.6217 23.2372 5.1134
					CHANNELS 3 Zrotation Xrotation Yrotation
					JOINT LeftArm
					{
						OFFSET 14.9198 0.0000 -5.5023
						CHANNELS 3 Zrotation Xrotation Yrotation
						JOINT LeftForeArm
						{
							OFFSET 28.7393 0.0000 -0.0026
							CHANNELS 3 Zrotation Xrotation Yrotation
							JOINT LeftHand
							{
								OFFSET 27.0940 -0.0000 0.0026
								CHANNELS 3 Zrotation Xrotation Yrotation
								JOINT LeftHandThumbEnd
								{
									OFFSET 12.2686 -3.2202 4.8331
									CHANNELS 3 Zrotation Xrotation Yrotation
									End Site
									{
										OFFSET 0.0 1.0 0.0
									}
								}
								JOINT LeftHandMiddleEnd
								{
									OFFSET 19.0120 -0.3129 -0.0340
									CHANNELS 3 Zrotation Xrotation Yrotation
									End Site
									{
										OFFSET 0.0 1.0 0.0
									}
								}
							}
						}
					}
				}
				JOINT RightShoulder
				{
					OFFSET -1.3801 23.1803 5.2142
					CHANNELS 3 Zrotation Xrotation Yrotation
					JOINT RightArm
					{
						OFFSET -15.0372 0.0000 -5.5456
						CHANNELS 3 Zrotation Xrotation Yrotation
						JOINT RightForeArm
						{
							OFFSET -28.7366 0.0000 -0.0026
							CHANNELS 3 Zrotation Xrotation Yrotation
							JOINT RightHand
							{
								OFFSET -27.1336 -0.0000 0.0026
								CHANNELS 3 Zrotation Xrotation Yrotation
								JOINT RightHandThumbEnd
								{
									OFFSET -12.2642 -3.2115 4.8040
									CHANNELS 3 Zrotation Xrotation Yrotation
									End Site
									{
										OFFSET 0.0 1.0 0.0
									}
								}
								JOINT RightHandMiddleEnd
								{
									OFFSET -19.0006 -0.3066 -0.0316
									CHANNELS 3 Zrotation Xrotation Yrotation
									End Site
									{
										OFFSET 0.0 1.0 0.0
									}
								}
							}
						}
					}
				}
			}
		}
	}
	JOINT LeftLeg
	{
		OFFSET 10.0432 -8.4345 2.5957
		CHANNELS 3 Zrotation Xrotation Yrotation
		JOINT LeftShin
		{
			OFFSET -0.0000 -43.2218 -0.8029
			CHANNELS 3 Zrotation Xrotation Yrotation
			JOINT LeftFoot
			{
				OFFSET 0.0000 -42.1551 -3.4815
				CHANNELS 3 Zrotation Xrotation Yrotation
				JOINT LeftToeBase
				{
					OFFSET 0.0000 -5.0595 13.2315
					CHANNELS 3 Zrotation Xrotation Yrotation
					End Site
					{
						OFFSET 0.0 1.0 0.0
					}
				}
			}
		}
	}
	JOINT RightLeg
	{
		OFFSET -10.0473 -8.2953 2.6203
		CHANNELS 3 Zrotation Xrotation Yrotation
		JOINT RightShin
		{
			OFFSET 0.0000 -43.3622 -0.8056
			CHANNELS 3 Zrotation Xrotation Yrotation
			JOINT RightFoot
			{
				OFFSET 0.0000 -42.1174 -3.4784
				CHANNELS 3 Zrotation Xrotation Yrotation
				JOINT RightToeBase
				{
					OFFSET -0.0000 -5.0796 13.2842
					CHANNELS 3 Zrotation Xrotation Yrotation
					End Site
					{
						OFFSET 0.0 1.0 0.0
					}
				}
			}
		}
	}
}
MOTION
Frames: 12
Frame Time: 0.033333
-4.5445 91.8568 3.4900 5.5027 -9.5009 -0.3447 -0.1009 2.5117 -0.0479 -0.6208 -3.6435 0.4402 -4.3361 16.3863 -3.7484 0.6501 42.7309 3.2658 -0.6415 -3.6578 0.5989 1.1607 -7.3742 -0.7717 -0.1431 -0.0001 0.2031 0.4818 -10.3341 -3.5660 -0.7682 -10.3611 4.0419 -8.4960 14.3194 -7.8055 -61.4228 -33.6365 -11.0952 -0.2308 0.1966 -140.1307 -5.3643 25.1845 16.0474 -15.5845 9.1218 15.3224 -60.0758 1.1484 2.8614 -1.9135 17.4218 8.8887 72.1812 -34.0973 2.7388 0.0385 0.1128 95.8458 -59.7639 51.8507 -129.1561 15.3284 8.3469 -14.9364 51.4563 -3.2457 -4.7290 10.1192 -16.2336 -8.8551 -0.9069 57.7355 -1.8849 -19.5648 -6.3137 -8.2082 1.7598 -6.4778 -2.0238 -14.9003 -18.9788 -3.8416 0.2106 42.8875 0.5579 10.8278 -14.2592 -15.6789 -1.4483 0.3943 1.0544
-3.6226 91.7189 2.5905 5.0186 -9.6891 0.0302 -0.3716 2.2999 -0.1716 -0.6986 -3.7166 0.1792 -4.5591 16.1478 -4.1223 0.5032 41.0870 3.3831 -0.5361 -3.6159 0.4976 1.4892 -7.0840 -1.0215 -0.1785 -0.0057 0.2444 0.4714 -10.2485 -3.5245 -0.8281 -10.2463 4.0921 -8.2128 14.3118 -8.5955 -60.5468 -31.8324 -13.7645 -0.7260 0.1649 -137.8774 -5.5659 26.0403 16.5748 -15.7762 9.1696 15.2789 -60.3255 1.1831 2.7522 -1.6480 17.2218 8.3281 71.3591 -34.6668 2.2945 -0.0084 0.0123 97.0401 -57.0308 51.7678 -125.7431 15.2533 8.3474 -15.0339 51.8421 -3.2780 -4.6744 10.1169 -13.3149 -8.9243 -0.8403 58.2281 -1.8197 -18.7020 -6.9780 -7.8199 1.8126 -6.9540 -2.0461 -15.0047 -19.0907 -3.1848 0.2029 42.7250 0.5973 11.7236 -13.3007 -16.2297 -1.4535 0.4854 0.9821
-2.4967 91.4220 1.5895 4.5203 -9.6523 0.5673 -0.6724 2.0995 -0.2968 -0.7729 -3.8445 -0.1578 -4.8378 15.9310 -4.4947 0.5715 38.9198 3.5330 -0.5382 -3.5566 0.0567 1.6369 -6.5880 -1.2745 -0.1900 -0.0058 0.2705 0.4865 -10.1710 -3.4969 -0.8666 -10.1624 4.1180 -8.1122 14.3112 -9.6247 -59.2858 -29.2429 -16.7425 -1.1160 0.1121 -134.8931 -6.2070 27.4663 17.1361 -15.8308 9.3221 15.2942 -60.5094 1.3366 2.6966 -1.2540 17.0246 7.6361 70.1564 -35.2275 1.9289 0.2806 -0.1902 98.3336 -52.6043 51.2393 -118.9225 15.2989 8.1091 -15.0464 52.0402 -3.3103 -4.6635 9.9402 -10.3782 -8.5787 -0.6829 56.5818 -1.6587 -17.5732 -7.7417 -6.3433 1.8737 -8.5275 -2.1046 -15.2381 -19.7608 -2.7274 0.2252 42.9453 0.6479 12.4188 -12.4162 -16.3828 -1.4599 0.7059 0.9590
-1.2739 90.9849 0.4813 4.0091 -9.4444 1.2006 -0.9240 1.9809 -0.4222 -0.8391 -3.9286 -0.4719 -5.2071 15.7481 -4.8430 0.7776 36.6198 3.6232 -0.6229 -3.5094 -0.4593 1.8140 -6.1671 -1.6601 -0.1650 -0.0007 0.2549 0.5367 -10.1082 -3.5118 -0.8658 -10.1075 4.0877 -8.6058 14.2645 -10.6076 -56.9660 -26.4776 -20.2900 -1.2930 0.0568 -131.5008 -6.6900 28.5864 17.2695 -15.6494 9.5574 15.3339 -60.5379 1.4934 2.5988 -0.9343 16.9297 6.8502 68.5037 -35.8596 2.0548 0.5442 -0.3204 99.4666 -48.2189 51.0463 -111.5805 15.4067 7.8342 -15.0173 52.0529 -3.3157 -4.6732 9.7510 -7.8248 -7.6669 -0.4949 53.4944 -1.4512 -16.4633 -10.7916 -3.9101 1.9137 -10.1522 -2.1545 -15.5758 -20.8062 -2.3563 0.2557 43.2980 0.7206 12.9176 -11.6673 -16.3690 -1.4618 0.9220 0.9577
-0.0374 90.4804 -0.7297 3.5253 -9.2599 1.9700 -1.1540 2.0341 -0.4975 -0.9169 -3.9686 -0.7595 -5.7395 15.6672 -5.1697 1.1100 34.5424 3.5459 -0.7364 -3.5043 -1.0181 2.1730 -5.6920 -2.1648 -0.1309 -0.0033 0.2201 0.5971 -10.0679 -3.5492 -0.8572 -10.0790 4.0402 -9.6223 14.0463 -11.5938 -53.6233 -23.4660 -24.2177 -1.1621 -0.0556 -127.7548 -7.0092 28.7203 17.0783 -15.3949 9.8659 15.3903 -60.4299 1.5935 2.4949 -0.8439 16.8447 5.9954 66.3566 -36.3197 2.7748 0.6472 -0.3367 100.3640 -42.6797 51.4545 -103.3978 15.5921 7.4976 -15.0020 51.9674 -3.3044 -4.6535 9.4501 -5.6560 -6.3483 -0.2944 49.5237 -1.2023 -15.8755 -16.7954 -1.2704 1.8793 -8.8851 -2.1266 -16.0711 -21.9738 -2.0271 0.2902 43.6873 0.7995 13.2755 -10.9290 -16.2782 -1.4603 0.9204 1.0019
1.1933 90.0800 -2.2189 3.1800 -9.1782 2.7379 -1.4205 2.1576 -0.4894 -0.9864 -3.9103 -0.9778 -6.4981 15.8363 -5.4522 1.2943 33.0341 3.2671 -0.8035 -3.5511 -1.3053 2.8151 -4.8749 -2.6640 -0.1046 0.0030 0.1957 0.6232 -10.0870 -3.5755 -0.8325 -10.0983 4.0038 -11.0864 13.5926 -12.4359 -49.6679 -20.2761 -27.8278 -0.8097 -0.1150 -123.7112 -7.4846 27.2373 16.2569 -15.1123 10.0983 15.4728 -60.1738 1.5487 2.5145 -1.0608 16.8047 5.3496 63.9556 -36.5268 3.8379 0.5875 -0.1673 100.8366 -35.2303 51.9606 -93.8809 16.0315 7.3297 -15.1684 52.1045 -3.2899 -4.6886 9.0265 -4.2804 -5.0050 -0.2128 45.5971 -0.9907 -15.9560 -22.6563 0.4019 1.7995 -5.4590 -1.9930 -16.7883 -23.0682 -1.8247 0.3192 43.8505 0.8377 13.4068 -9.8406 -15.8125 -1.4570 0.6433 1.0367
2.4047 89.8214 -3.8901 3.2010 -9.2276 3.2937 -1.8372 2.4881 -0.4290 -1.0616 -3.7325 -0.8691 -7.5040 16.1226 -5.6188 1.5344 32.2959 3.0211 -0.8911 -3.5820 -1.5950 3.4938 -4.0587 -2.8977 -0.0495 -0.0185 0.1044 0.6819 -10.1528 -3.6834 -0.7800 -10.1682 3.9070 -12.9738 13.0409 -13.2178 -45.3580 -16.9960 -30.5057 -0.6344 -0.2318 -119.3815 -7.9921 24.1057 15.4499 -14.9677 10.3069 15.5779 -60.1347 1.6069 2.5162 -1.5684 16.8269 4.7999 61.2829 -36.2003 5.4785 0.2876 -0.1910 101.0728 -27.0113 52.0552 -83.9402 16.3486 7.1527 -15.4112 52.2005 -3.2986 -4.8536 8.1393 -3.9793 -4.1090 -0.1042 42.9436 -0.6750 -15.5435 -26.3818 1.2041 1.7541 -2.1566 -1.8812 -17.8505 -23.9803 -1.6808 0.3797 43.4792 0.9274 13.4947 -8.3092 -14.9649 -1.4453 0.2885 1.1144
3.5296 89.7881 -5.7968 3.5029 -9.3005 3.2211 -2.2542 2.9394 -0.2721 -1.1422 -3.5453 -0.5138 -8.7444 16.6324 -5.3473 1.5184 32.3714 3.0152 -0.9226 -3.6686 -1.6892 4.0826 -3.2688 -2.7512 -0.0073 -0.0395 0.0262 0.7168 -10.2773 -3.7923 -0.7306 -10.3006 3.8443 -14.8063 12.4667 -13.7939 -41.5085 -14.2131 -31.5459 -0.6963 -0.4299 -115.0470 -8.2251 21.4536 15.1771 -15.0210 10.3371 15.5180 -60.1088 1.7414 2.5191 -2.5482 16.7366 4.4448 59.5330 -35.4775 6.7348 0.0848 -0.1905 101.0759 -18.6388 51.7838 -74.0148 16.6461 7.0054 -15.6404 52.2934 -3.3395 -5.0605 7.0129 -4.8535 -3.2706 -0.0777 42.2034 -0.5549 -14.6691 -27.6639 1.1847 1.6972 -0.9735 -1.8734 -18.9830 -24.6976 -1.1595 0.4497 42.2672 1.0060 13.3986 -6.2632 -13.8858 -1.4342 0.0011 1.1268
4.4961 90.0161 -7.8252 3.4217 -9.2639 2.3893 -2.2924 3.4097 -0.1097 -1.1589 -3.3512 0.0940 -9.9034 17.1140 -4.8500 0.9559 32.9483 3.5641 -0.9844 -3.6333 -1.3488 4.4370 -2.6445 -2.4151 -0.0008 -0.0540 0.0043 0.7154 -10.3674 -3.8250 -0.7181 -10.3851 3.8304 -16.0634 11.7351 -13.7243 -38.9587 -12.1290 -30.6373 -0.6948 -0.4383 -111.7098 -7.8233 19.9711 15.7367 -14.9008 10.3510 15.5442 -60.0218 1.9398 2.5097 -4.0648 16.5439 4.4745 58.9375 -34.6137 7.8152 -0.0300 -0.1161 100.7238 -11.4279 50.7390 -65.6343 16.7537 6.9015 -15.7507 52.0889 -3.3541 -5.2564 6.5759 -6.5103 -2.3296 -0.1306 42.8324 -0.5341 -13.8538 -27.2220 0.9438 1.6727 -0.6865 -1.8463 -19.2026 -24.9900 -0.6636 0.4370 39.5924 1.0319 13.3414 -3.5328 -12.6609 -1.4227 -0.2843 1.2071
5.3504 90.3789 -9.8757 2.9120 -9.2010 0.4674 -2.1410 3.9078 0.0408 -1.1384 -3.1458 0.7853 -10.5215 17.3238 -4.0690 -0.7945 33.8031 4.6509 -0.9725 -3.5918 -0.7349 4.4291 -2.1910 -1.6641 -0.0350 -0.0527 0.0251 0.6912 -10.4367 -3.8098 -0.7665 -10.4334 3.8695 -16.5710 11.3126 -12.9671 -37.9690 -11.2818 -27.5854 -0.6502 -0.4629 -110.0940 -6.9397 19.7806 17.4870 -14.7404 10.3966 15.5427 -60.1367 2.0458 2.5058 -5.9996 16.2475 4.9595 58.5100 -33.7418 10.0051 -0.3734 0.1003 99.8067 -6.1240 51.0988 -60.4075 16.6879 6.8329 -15.7341 51.7925 -3.3646 -5.2946 6.8367 -7.7325 -0.8235 -0.2457 43.0182 -0.6504 -13.3520 -26.3206 1.1163 1.6704 -0.5180 -1.8452 -18.3617 -24.9094 -0.4757 0.3793 35.5697 0.9597 13.4717 -0.4416 -10.7293 -1.4118 -0.4717 1.2795
6.0326 90.8092 -11.8623 2.1755 -9.2031 -2.4602 -1.9830 4.3892 0.2127 -1.1919 -2.8950 1.4091 -10.7163 17.3243 -3.0768 -2.9342 34.3295 6.0244 -1.0030 -3.4973 0.1984 4.2914 -2.0249 -0.8316 -0.1021 -0.0255 0.0726 0.6627 -10.4993 -3.7722 -0.8753 -10.4579 3.9469 -16.1213 11.2730 -11.9292 -38.1405 -11.5213 -22.6032 -0.7638 -0.5499 -110.2222 -5.4155 19.7859 19.9987 -14.8509 10.5044 15.5282 -60.3342 2.0178 2.4832 -7.4744 15.6871 5.7123 57.1337 -33.4717 13.7657 -0.6818 0.5089 98.3160 -1.3261 52.9635 -56.6190 16.3374 6.8778 -15.6614 51.4947 -3.3415 -5.2726 7.5199 -8.4461 1.1529 -0.3812 42.7069 -0.7845 -13.1772 -25.0969 2.0261 1.6653 -0.4992 -1.8226 -16.5852 -24.7107 -1.3648 0.4248 30.4484 1.1397 14.1819 2.3921 -7.6193 -1.4048 -0.7999 1.3065
6.6008 91.2418 -13.9392 1.3434 -9.2179 -6.1699 -2.0122 4.8469 0.4271 -1.2677 -2.7602 1.9507 -10.4897 17.1097 -2.0718 -5.0484 34.4058 7.1717 -1.0259 -3.5258 1.1236 3.5989 -2.1411 0.4238 -0.1412 -0.0143 0.0932 0.6576 -10.5362 -3.7582 -0.9497 -10.5017 3.9878 -14.7846 11.3006 -10.7556 -38.7644 -11.2528 -16.3486 -0.5985 -0.6835 -111.8435 -3.8114 19.4320 22.5191 -14.7801 10.5710 15.5418 -60.5187 1.9588 2.5194 -8.7036 15.2846 6.8874 54.6208 -34.1792 19.0546 -0.9085 0.6815 96.5021 2.5930 55.0894 -53.5824 16.0070 7.1276 -15.7222 51.6703 -3.2428 -5.2672 8.5960 -9.0777 3.4966 -0.4126 42.3724 -0.8347 -13.2585 -23.8090 3.2942 1.6629 -0.2488 -1.8064 -13.7680 -24.6857 -3.4267 0.3551 25.6057 0.8978 14.5698 3.2703 -5.0972 -1.3657 -1.1494 1.3583
